<svg width="22" height="18" viewBox="0 0 22 18" fill="none" xmlns="http://www.w3.org/2000/svg">
<g id="01 align center">
<path id="Vector" d="M18.5938 0.40625H2.65625C1.95177 0.40625 1.27614 0.65318 0.777998 1.09272C0.279854 1.53226 0 2.1284 0 2.75L0 17.5938H21.25V2.75C21.25 2.1284 20.9701 1.53226 20.472 1.09272C19.9739 0.65318 19.2982 0.40625 18.5938 0.40625ZM2.65625 1.96875H18.5938C18.8286 1.96875 19.0538 2.05106 19.2198 2.19757C19.3859 2.34409 19.4792 2.5428 19.4792 2.75V3.27109L12.5039 9.42656C12.0049 9.86509 11.3293 10.1113 10.625 10.1113C9.92073 10.1113 9.24514 9.86509 8.74615 9.42656L1.77083 3.27109V2.75C1.77083 2.5428 1.86412 2.34409 2.03017 2.19757C2.19621 2.05106 2.42142 1.96875 2.65625 1.96875ZM1.77083 16.0312V5.48438L7.49417 10.5312C8.32524 11.2627 9.45117 11.6735 10.625 11.6735C11.7988 11.6735 12.9248 11.2627 13.7558 10.5312L19.4792 5.48438V16.0312H1.77083Z" fill="white"/>
</g>
</svg>
