<svg width="22" height="21" viewBox="0 0 22 21" fill="none" xmlns="http://www.w3.org/2000/svg">
<g id="Linkedin" clip-path="url(#clip0_1320_733)">
<path id="Vector" d="M0 2.38853C0 1.69676 0.242124 1.12605 0.726351 0.676421C1.21058 0.226769 1.8401 0.00195312 2.61486 0.00195312C3.37581 0.00195312 3.99147 0.223303 4.46187 0.666045C4.9461 1.12261 5.18822 1.71751 5.18822 2.45079C5.18822 3.11488 4.95303 3.66828 4.48263 4.11102C3.9984 4.56758 3.36197 4.79587 2.57336 4.79587H2.55261C1.79166 4.79587 1.176 4.56758 0.705598 4.11102C0.235193 3.65446 0 3.08029 0 2.38853ZM0.269788 20.5473V6.68438H4.87693V20.5473H0.269788ZM7.42954 20.5473H12.0367V12.8065C12.0367 12.3222 12.092 11.9487 12.2027 11.6858C12.3964 11.2154 12.6904 10.8176 13.0847 10.4925C13.479 10.1674 13.9736 10.0048 14.5685 10.0048C16.1181 10.0048 16.8929 11.0494 16.8929 13.1385V20.5473H21.5V12.5989C21.5 10.5513 21.0158 8.99832 20.0473 7.93993C19.0788 6.88153 17.7991 6.35233 16.208 6.35233C14.4233 6.35233 13.0328 7.12019 12.0367 8.6559V8.69741H12.0159L12.0367 8.6559V6.68438H7.42954C7.4572 7.1271 7.47104 8.5037 7.47104 10.8142C7.47104 13.1247 7.4572 16.369 7.42954 20.5473Z" fill="white"/>
</g>
<defs>
<clipPath id="clip0_1320_733">
<rect width="21.5" height="20.5454" fill="white"/>
</clipPath>
</defs>
</svg>
