<svg width="513" height="512" viewBox="0 0 513 512" fill="none" xmlns="http://www.w3.org/2000/svg">
<path d="M107.506 30.5498V47.9098H477.906V30.5498C477.906 29.4889 477.485 28.4715 476.734 27.7214C475.984 26.9712 474.967 26.5498 473.906 26.5498H111.506C110.445 26.5498 109.428 26.9712 108.678 27.7214C107.927 28.4715 107.506 29.4889 107.506 30.5498Z" fill="#00559A" fill-opacity="0.3"/>
<path d="M119.926 245.991C119.926 245.991 110.926 259.311 117.046 279.111C117.046 279.111 108.046 339.591 103.726 352.551C99.406 365.511 74.446 436.071 74.446 436.071L119.926 448.071L150.346 347.031L147.406 448.071H193.726C193.726 448.071 194.926 295.73 183.406 263.421L172.201 250.921L170.567 252.471L164.666 245.991H119.926Z" fill="#48A085" fill-opacity="0.5"/>
<path d="M158.446 128.811C158.446 128.811 173.746 129.351 169.966 137.991C166.186 146.631 156.286 141.051 156.286 141.051C156.286 141.051 158.266 156.171 149.986 149.871C141.706 143.571 144.046 159.231 151.426 158.511C151.426 158.511 158.446 173.271 153.406 178.671C148.366 184.071 140.986 179.391 139.186 173.811C139.186 173.811 128.746 176.691 128.386 164.811C128.026 152.931 123.886 151.671 129.826 147.351C135.766 143.031 140.086 122.511 158.446 128.811Z" fill="black"/>
<path d="M167.32 179.892C162.888 179.892 155.038 176.319 154.706 176.168C154.646 176.141 154.592 176.102 154.548 176.054C154.503 176.006 154.468 175.949 154.445 175.888C154.399 175.764 154.404 175.626 154.459 175.505C154.514 175.385 154.615 175.291 154.739 175.244C154.864 175.198 155.001 175.203 155.122 175.258C155.202 175.295 163.106 178.892 167.32 178.892C167.847 178.892 167.973 178.792 167.974 178.791C167.949 178.207 165.079 175.867 161.662 173.733C158.622 172.82 160.058 166.923 160.122 166.67C160.148 166.566 160.207 166.473 160.29 166.405C160.373 166.336 160.476 166.297 160.583 166.292C166.135 166.037 170.002 164.162 172.076 160.718C177.17 152.26 170.05 136.945 169.978 136.792C169.921 136.672 169.914 136.535 169.959 136.41C170.004 136.285 170.096 136.183 170.216 136.126C170.336 136.069 170.473 136.063 170.598 136.107C170.723 136.152 170.825 136.244 170.882 136.364C171.187 137.012 178.303 152.314 172.934 161.232C170.725 164.9 166.714 166.931 161.009 167.271C160.657 168.936 160.306 172.338 161.995 172.788C162.043 172.801 162.088 172.821 162.13 172.847C164.847 174.538 169.34 177.602 168.907 179.114C168.685 179.892 167.657 179.892 167.32 179.892Z" fill="black"/>
<path d="M170.566 252.972H170.548C170.482 252.969 170.416 252.953 170.356 252.925C170.296 252.897 170.242 252.858 170.197 252.809L164.445 246.491H113.806C113.732 246.491 113.66 246.474 113.593 246.443C113.527 246.411 113.468 246.365 113.421 246.309C113.374 246.252 113.34 246.185 113.322 246.114C113.304 246.043 113.302 245.968 113.316 245.896C121.519 203.808 139.48 175.801 139.661 175.522C139.733 175.411 139.847 175.333 139.977 175.305C140.106 175.277 140.242 175.302 140.353 175.375C140.464 175.447 140.542 175.561 140.57 175.69C140.597 175.82 140.572 175.956 140.5 176.067C140.32 176.343 122.63 203.937 114.414 245.491H164.666C164.736 245.491 164.804 245.505 164.868 245.533C164.932 245.561 164.989 245.602 165.036 245.654L170.593 251.758L193.035 230.478L179.128 214.461C179.065 214.389 179.025 214.3 179.011 214.205C178.997 214.111 179.011 214.014 179.05 213.927C179.084 213.854 182.33 206.523 179.428 201.231C176.411 195.729 168.544 183.351 168.464 183.227C168.42 183.157 168.393 183.077 168.387 182.995C168.381 182.912 168.395 182.83 168.429 182.754C168.463 182.679 168.515 182.613 168.58 182.562C168.645 182.512 168.722 182.478 168.804 182.465L186.89 179.421L163.356 174.798C163.289 174.788 163.224 174.765 163.166 174.73C163.108 174.695 163.058 174.648 163.019 174.592C162.98 174.537 162.952 174.474 162.938 174.408C162.923 174.342 162.923 174.273 162.936 174.207C162.949 174.14 162.975 174.077 163.013 174.021C163.052 173.965 163.101 173.917 163.158 173.881C163.216 173.844 163.28 173.82 163.347 173.809C163.414 173.798 163.482 173.801 163.548 173.818L189.773 178.968C189.888 178.99 189.992 179.052 190.066 179.143C190.139 179.234 190.179 179.348 190.178 179.465C190.176 179.582 190.133 179.695 190.057 179.784C189.981 179.873 189.876 179.932 189.76 179.952L169.711 183.326C171.367 185.942 177.668 195.943 180.305 200.751C183.137 205.917 180.703 212.548 180.088 214.041L194.104 230.184C194.188 230.281 194.232 230.407 194.225 230.536C194.219 230.665 194.163 230.786 194.07 230.875L170.91 252.835C170.817 252.923 170.694 252.972 170.566 252.972Z" fill="black"/>
<path d="M164.667 246.491C164.585 246.491 164.505 246.472 164.432 246.433C164.36 246.395 164.298 246.34 164.252 246.272C160.672 240.986 157.404 235.495 154.463 229.829C150.323 221.279 149.863 198.544 149.846 197.58C149.844 197.448 149.894 197.32 149.986 197.224C150.078 197.129 150.204 197.074 150.336 197.071H150.346C150.477 197.071 150.603 197.123 150.697 197.215C150.79 197.307 150.844 197.432 150.846 197.563C150.851 197.796 151.319 221.04 155.364 229.393C158.283 235.016 161.527 240.464 165.08 245.71C165.131 245.785 165.161 245.873 165.166 245.964C165.171 246.055 165.151 246.145 165.108 246.225C165.066 246.306 165.002 246.373 164.924 246.42C164.846 246.466 164.757 246.491 164.666 246.491H164.667ZM179.506 214.633C179.412 214.633 179.321 214.607 179.241 214.557C179.162 214.508 179.098 214.437 179.057 214.353L168.977 193.832C168.948 193.773 168.931 193.709 168.927 193.643C168.923 193.578 168.931 193.512 168.953 193.45C168.974 193.388 169.007 193.33 169.05 193.281C169.094 193.232 169.147 193.192 169.206 193.163C169.264 193.134 169.329 193.117 169.394 193.112C169.46 193.108 169.525 193.117 169.588 193.138C169.65 193.159 169.707 193.193 169.756 193.236C169.806 193.279 169.846 193.332 169.875 193.391L179.955 213.912C179.992 213.988 180.01 214.073 180.005 214.158C180.001 214.242 179.975 214.325 179.93 214.397C179.885 214.469 179.823 214.528 179.749 214.569C179.674 214.61 179.591 214.633 179.506 214.633ZM169.426 246.491C169.327 246.491 169.231 246.462 169.149 246.407C169.067 246.353 169.003 246.275 168.965 246.184C168.927 246.093 168.916 245.993 168.935 245.896C168.954 245.799 169.001 245.71 169.07 245.64L187.43 227.1C187.523 227.006 187.65 226.952 187.783 226.951C187.916 226.95 188.043 227.002 188.138 227.096C188.232 227.189 188.285 227.316 188.286 227.448C188.287 227.581 188.235 227.709 188.142 227.803L169.782 246.343C169.735 246.39 169.68 246.427 169.619 246.453C169.558 246.478 169.492 246.491 169.426 246.491ZM150.346 347.034L144.766 291.714L143.697 369.118L150.346 347.034ZM201.024 287.669C199.174 287.669 197.215 286.733 195.188 284.881C190.762 280.813 187.64 275.525 186.218 269.684C185.708 267.469 183.028 263.752 183.001 263.714C182.961 263.661 182.932 263.6 182.915 263.536C182.899 263.471 182.895 263.404 182.905 263.338C182.915 263.272 182.938 263.209 182.972 263.152C183.007 263.095 183.052 263.046 183.106 263.007C183.16 262.968 183.222 262.94 183.286 262.925C183.351 262.91 183.419 262.908 183.484 262.919C183.55 262.93 183.613 262.955 183.669 262.991C183.725 263.027 183.773 263.073 183.811 263.128C183.926 263.286 186.637 267.048 187.193 269.459C188.568 275.103 191.585 280.213 195.863 284.143C197.92 286.023 199.853 286.863 201.595 286.632C202.241 286.525 202.859 286.29 203.414 285.942C203.968 285.593 204.448 285.138 204.825 284.602C204.885 284.509 204.974 284.439 205.078 284.402C205.182 284.364 205.296 284.362 205.401 284.396C208.272 285.332 210.528 285.289 212.106 284.262C212.694 283.844 213.19 283.312 213.566 282.696C213.941 282.08 214.187 281.395 214.289 280.681C214.298 280.597 214.328 280.516 214.376 280.446C214.425 280.377 214.49 280.321 214.567 280.283C214.643 280.246 214.727 280.229 214.812 280.233C214.897 280.237 214.979 280.263 215.051 280.308C217.003 281.528 218.645 281.847 219.931 281.253C222.191 280.213 222.746 276.673 222.751 276.638C222.765 276.545 222.805 276.457 222.867 276.386C222.928 276.314 223.009 276.262 223.099 276.234C225.75 275.417 227.125 273.989 227.3 271.868C228.027 263.089 208.816 246.535 206.222 245.238C202.832 243.543 192.044 233.014 191.586 232.567C191.491 232.474 191.437 232.348 191.436 232.215C191.434 232.082 191.486 231.954 191.579 231.86C191.671 231.765 191.798 231.711 191.931 231.709C192.063 231.708 192.191 231.759 192.286 231.852C192.396 231.96 203.417 242.718 206.669 244.344C209.428 245.724 229.074 262.57 228.297 271.95C228.093 274.408 226.542 276.138 223.684 277.096C223.482 278.079 222.689 281.081 220.353 282.16C218.889 282.835 217.137 282.62 215.138 281.519C214.779 282.979 213.893 284.254 212.651 285.101C210.876 286.256 208.45 286.374 205.437 285.456C204.525 286.622 203.203 287.396 201.74 287.621C201.503 287.653 201.263 287.669 201.024 287.669Z" fill="black"/>
<path d="M223.247 277.21C223.163 277.21 223.08 277.189 223.006 277.149C222.932 277.109 222.87 277.051 222.824 276.98L215.984 266.24C215.913 266.128 215.889 265.992 215.918 265.863C215.947 265.733 216.026 265.621 216.137 265.549C216.249 265.478 216.385 265.454 216.515 265.483C216.644 265.512 216.757 265.591 216.828 265.703L223.668 276.443C223.716 276.518 223.743 276.605 223.746 276.695C223.749 276.784 223.727 276.873 223.684 276.951C223.641 277.03 223.578 277.095 223.501 277.141C223.424 277.186 223.336 277.211 223.247 277.211V277.21ZM214.787 281.231C214.706 281.231 214.626 281.212 214.554 281.174C214.483 281.137 214.421 281.082 214.375 281.016L207.895 271.626C207.821 271.517 207.793 271.383 207.817 271.253C207.841 271.123 207.916 271.008 208.024 270.933C208.133 270.858 208.267 270.829 208.397 270.853C208.527 270.876 208.642 270.95 208.718 271.058L215.198 280.448C215.273 280.557 215.302 280.692 215.278 280.822C215.254 280.952 215.179 281.068 215.07 281.143C214.987 281.2 214.888 281.231 214.787 281.231ZM205.247 285.371C205.165 285.371 205.085 285.351 205.013 285.313C204.941 285.275 204.879 285.22 204.833 285.153L200.153 278.313C200.116 278.259 200.09 278.198 200.077 278.133C200.063 278.069 200.062 278.003 200.075 277.938C200.087 277.874 200.111 277.812 200.147 277.757C200.183 277.702 200.23 277.655 200.284 277.618C200.338 277.581 200.399 277.555 200.464 277.541C200.528 277.528 200.594 277.527 200.659 277.539C200.723 277.552 200.785 277.576 200.84 277.612C200.895 277.648 200.942 277.695 200.979 277.749L205.659 284.589C205.71 284.664 205.74 284.752 205.745 284.842C205.75 284.933 205.731 285.024 205.688 285.104C205.646 285.184 205.583 285.252 205.505 285.299C205.427 285.346 205.338 285.371 205.247 285.371ZM149.387 279.318C147.539 279.318 145.453 279.158 143.514 279.008C141.638 278.8 139.75 278.734 137.864 278.81C134.798 279.008 131.722 279.008 128.656 278.812C128.59 278.808 128.526 278.791 128.467 278.762C128.408 278.734 128.355 278.693 128.312 278.644C128.268 278.595 128.235 278.538 128.213 278.475C128.192 278.413 128.183 278.347 128.187 278.282C128.197 278.15 128.257 278.028 128.356 277.94C128.455 277.852 128.584 277.807 128.716 277.813C131.724 278.003 134.741 278.004 137.749 277.815C139.698 277.731 141.65 277.797 143.589 278.012C146.942 278.27 150.741 278.559 152.792 277.992C152.856 277.97 152.924 277.962 152.992 277.968C153.06 277.973 153.125 277.992 153.185 278.024C153.245 278.056 153.298 278.1 153.341 278.152C153.383 278.205 153.415 278.266 153.433 278.332C153.451 278.397 153.456 278.465 153.447 278.533C153.438 278.6 153.415 278.665 153.38 278.723C153.345 278.781 153.299 278.832 153.244 278.871C153.189 278.911 153.126 278.939 153.06 278.954C151.856 279.231 150.622 279.354 149.387 279.318Z" fill="black"/>
<path d="M150.346 448.071V478.101C150.346 479.319 150.83 480.486 151.69 481.347C152.551 482.208 153.719 482.691 154.936 482.691H224.146V480.086C224.146 479.131 223.89 478.192 223.404 477.37C222.918 476.547 222.221 475.869 221.384 475.407L192.826 459.651V448.071H150.346ZM116.76 453.923L118.743 447.759L77.61 436.906L70.67 458.473C70.4852 459.047 70.4153 459.652 70.4642 460.252C70.5132 460.853 70.68 461.439 70.9551 461.975C71.2303 462.511 71.6084 462.988 72.0678 463.378C72.5273 463.769 73.0591 464.065 73.633 464.249L139.516 485.45L140.314 482.97C140.607 482.061 140.65 481.089 140.44 480.157C140.229 479.225 139.773 478.366 139.118 477.67L116.76 453.923Z" fill="#A37200"/>
<path d="M168.732 155.278C167.909 155.238 167.105 155.018 166.376 154.636C166.318 154.606 166.266 154.564 166.223 154.514C166.181 154.464 166.149 154.406 166.129 154.343C166.109 154.281 166.102 154.215 166.107 154.149C166.113 154.084 166.131 154.02 166.161 153.962C166.192 153.903 166.233 153.851 166.283 153.809C166.334 153.767 166.392 153.734 166.454 153.715C166.517 153.695 166.583 153.687 166.648 153.693C166.714 153.698 166.778 153.717 166.836 153.747C167.483 154.082 168.881 154.578 169.529 154.044C170.021 153.643 169.944 152.636 169.827 151.109C169.699 149.679 169.424 148.266 169.007 146.893C168.885 146.487 168.757 146.083 168.621 145.681C168.27 144.621 168.058 143.982 168.468 143.357C168.901 142.697 169.794 142.431 171.204 142.532C171.336 142.542 171.459 142.605 171.545 142.705C171.631 142.806 171.674 142.937 171.664 143.069C171.66 143.135 171.642 143.199 171.613 143.258C171.584 143.317 171.543 143.369 171.493 143.412C171.443 143.455 171.385 143.488 171.322 143.508C171.26 143.528 171.194 143.536 171.128 143.53C169.821 143.423 169.424 143.723 169.304 143.905C169.165 144.118 169.278 144.485 169.57 145.365C169.685 145.712 169.82 146.12 169.965 146.609C170.403 148.05 170.692 149.533 170.825 151.033C170.965 152.873 171.058 154.088 170.162 154.819C169.753 155.134 169.248 155.297 168.732 155.279V155.278ZM165.316 159.41C164.532 159.436 163.762 159.197 163.131 158.73C162.734 158.391 162.411 157.975 162.18 157.507C161.949 157.039 161.815 156.529 161.787 156.008C161.783 155.876 161.831 155.747 161.921 155.651C162.011 155.554 162.136 155.497 162.268 155.492C162.4 155.49 162.528 155.539 162.624 155.629C162.721 155.718 162.779 155.842 162.786 155.974C162.835 156.731 163.181 157.438 163.749 157.942C164.154 158.196 164.611 158.356 165.086 158.412C165.561 158.468 166.042 158.417 166.495 158.264C166.622 158.241 166.752 158.268 166.86 158.339C166.967 158.41 167.043 158.519 167.071 158.645C167.1 158.77 167.079 158.902 167.013 159.013C166.947 159.123 166.841 159.204 166.717 159.238C166.258 159.348 165.788 159.405 165.316 159.41ZM160.336 146.05C160.242 146.05 160.149 146.023 160.07 145.972C159.99 145.922 159.926 145.85 159.886 145.764C159.845 145.679 159.83 145.584 159.841 145.491C159.852 145.397 159.89 145.308 159.949 145.235C159.972 145.207 162.259 142.485 166.144 144.475C166.262 144.535 166.351 144.64 166.392 144.767C166.433 144.893 166.422 145.03 166.361 145.149C166.301 145.267 166.196 145.356 166.07 145.397C165.943 145.438 165.806 145.426 165.688 145.366C162.543 143.752 160.794 145.782 160.722 145.87C160.675 145.927 160.616 145.972 160.549 146.003C160.482 146.034 160.41 146.05 160.336 146.05Z" fill="black"/>
<path d="M164.783 150.303C165.273 150.22 165.573 149.577 165.454 148.867C165.334 148.156 164.84 147.647 164.349 147.729C163.859 147.812 163.559 148.455 163.678 149.165C163.798 149.876 164.292 150.385 164.783 150.303Z" fill="black"/>
<path d="M172.026 148.548C172.516 148.465 172.816 147.822 172.696 147.112C172.577 146.401 172.083 145.892 171.592 145.974C171.102 146.057 170.802 146.7 170.921 147.41C171.041 148.121 171.535 148.63 172.026 148.548Z" fill="black"/>
<path d="M224.63 194.112C224.397 194.111 224.164 194.083 223.937 194.028C223.226 193.858 222.549 193.569 221.934 193.174C220.94 192.503 220.25 191.468 220.014 190.293C219.46 191.009 218.768 191.608 217.979 192.053C217.563 192.267 217.109 192.396 216.642 192.433C216.524 192.45 216.407 192.466 216.293 192.486C215.932 192.607 215.546 192.629 215.174 192.55C214.802 192.471 214.458 192.294 214.177 192.037C213.701 191.67 213.27 191.249 212.891 190.782C212.22 189.701 211.863 188.454 211.859 187.182C211.614 184.26 211.733 181.318 212.213 178.425C212.229 178.329 212.258 178.193 212.294 178.029C212.671 176.287 212.558 175.863 212.456 175.766C212.176 175.791 210.708 176.068 209.413 176.312C208.303 176.558 207.18 176.745 206.05 176.873V176.875L205.992 176.874C205.933 176.875 205.874 176.871 205.815 176.861C205.517 176.844 205.224 176.829 204.936 176.816C202.862 176.865 200.804 176.449 198.911 175.6L198.508 175.394C197.454 174.89 196.44 174.308 195.473 173.652C193.947 172.559 192.397 170.141 193.732 168.19C195.355 165.82 198.386 166.647 200.392 167.197L201.01 167.372C201.648 167.576 202.302 167.727 202.964 167.825C203.869 167.931 204.778 167.987 205.689 167.992C205.931 167.995 206.189 168.005 206.457 168.016C207.753 168.067 209.226 168.125 210.115 167.436C210.54 167.093 210.941 166.722 211.317 166.326L211.727 165.916C212.445 165.218 213.238 164.6 214.091 164.074L214.479 163.827C215.797 162.979 217.602 161.823 219.268 162.572C219.56 162.718 219.841 162.887 220.106 163.077C220.976 163.659 221.438 163.886 221.72 163.593C221.901 163.379 222.047 163.139 222.155 162.881C222.24 162.697 222.335 162.517 222.439 162.343C222.804 161.787 223.281 161.312 223.839 160.949C224.407 160.587 225.05 160.362 225.72 160.292C226.389 160.221 227.066 160.308 227.696 160.544C228.067 160.719 228.415 160.94 228.731 161.202C229.159 161.522 229.951 162.113 230.201 161.942C230.277 161.848 230.339 161.744 230.386 161.632C230.443 161.51 230.509 161.392 230.584 161.279C230.747 161.059 230.928 160.853 231.124 160.663C231.22 160.567 231.314 160.469 231.404 160.368L231.534 160.218C231.939 159.641 232.525 159.217 233.199 159.013L233.351 158.978C234.035 158.748 234.773 158.726 235.469 158.917C236.093 159.176 236.666 159.543 237.162 160.001C237.406 160.235 237.619 160.5 237.795 160.788C237.912 160.963 238.13 161.288 238.226 161.312C238.226 161.312 238.288 161.31 238.43 161.196L238.656 161.015C239.057 160.588 239.542 160.248 240.08 160.017C240.618 159.785 241.197 159.666 241.783 159.668C242.551 159.757 243.285 160.034 243.921 160.473C244.557 160.913 245.075 161.503 245.429 162.19C246.032 163.401 248.635 171.379 248.558 174.278C248.512 176.01 247.159 184.928 246.327 186.442C246.155 186.872 245.872 187.249 245.507 187.534C245.141 187.818 244.706 188 244.247 188.061C242.871 188.149 241.644 186.595 240.964 185.612C240.923 185.749 240.885 185.886 240.85 186.024C240.792 186.279 240.712 186.529 240.612 186.77C240.306 187.483 239.941 188.169 239.522 188.822C238.707 189.858 237.667 190.695 236.48 191.27C235.874 191.666 235.178 191.902 234.457 191.957C233.735 192.012 233.012 191.883 232.353 191.583C231.602 191.191 230.999 190.565 230.633 189.801C230.297 190.545 229.833 191.225 229.262 191.808C228.414 192.678 227.376 193.339 226.229 193.74C225.723 193.96 225.18 194.086 224.629 194.112H224.63ZM220.277 188.364C220.304 188.364 220.331 188.366 220.357 188.371C220.466 188.389 220.566 188.442 220.641 188.522C220.717 188.602 220.763 188.705 220.774 188.815C220.944 190.56 221.499 191.71 222.472 192.332C222.993 192.666 223.565 192.91 224.166 193.056C224.753 193.158 225.358 193.068 225.89 192.801C226.899 192.447 227.812 191.864 228.558 191.097C229.423 190.128 230.04 188.964 230.358 187.704L230.368 187.674C230.41 187.551 230.499 187.449 230.616 187.39C230.733 187.331 230.868 187.321 230.992 187.36C231.116 187.399 231.22 187.486 231.282 187.601C231.343 187.716 231.357 187.851 231.321 187.976L231.314 187.998C231.268 188.539 231.382 189.081 231.642 189.557C231.902 190.033 232.296 190.423 232.775 190.677C233.299 190.909 233.874 191.004 234.444 190.951C235.015 190.898 235.563 190.7 236.035 190.375C237.074 189.879 237.985 189.153 238.701 188.252C239.086 187.648 239.421 187.013 239.703 186.354C239.779 186.165 239.839 185.971 239.883 185.772C239.958 185.194 240.231 184.66 240.656 184.262C240.763 184.189 240.895 184.161 241.022 184.184C241.15 184.206 241.264 184.277 241.34 184.382C241.382 184.441 241.442 184.529 241.516 184.641C241.916 185.243 243.124 187.063 244.169 187.063L244.206 187.062C244.64 187.044 245.059 186.672 245.451 185.96C246.091 184.797 247.506 176.205 247.558 174.251C247.63 171.55 245.099 163.771 244.534 162.636C244.254 162.097 243.847 161.634 243.346 161.29C242.846 160.945 242.269 160.729 241.665 160.66C240.755 160.715 239.902 161.121 239.285 161.791L239.055 161.978C238.923 162.098 238.768 162.188 238.598 162.244C238.429 162.3 238.25 162.319 238.073 162.301C237.549 162.22 237.238 161.754 236.963 161.344C236.833 161.129 236.678 160.93 236.5 160.751C236.09 160.372 235.617 160.066 235.103 159.847C234.594 159.746 234.068 159.782 233.578 159.951L233.421 159.987C232.959 160.153 232.563 160.463 232.291 160.872L232.157 161.027C232.054 161.144 231.947 161.254 231.837 161.364C231.679 161.516 231.533 161.68 231.401 161.855C231.356 161.926 231.316 162 231.282 162.076C231.174 162.341 231.001 162.575 230.78 162.756C229.939 163.357 228.937 162.606 228.133 162.003C227.887 161.801 227.621 161.625 227.339 161.478C226.862 161.303 226.351 161.239 225.845 161.288C225.339 161.338 224.851 161.502 224.417 161.766C223.969 162.052 223.585 162.427 223.29 162.868C223.204 163.013 223.126 163.163 223.055 163.316C222.904 163.67 222.696 163.998 222.441 164.286C221.526 165.24 220.336 164.436 219.549 163.907C219.329 163.749 219.097 163.608 218.856 163.484C217.686 162.955 216.207 163.904 215.02 164.668L214.623 164.922C213.831 165.41 213.094 165.983 212.426 166.631L212.026 167.031C211.619 167.458 211.185 167.858 210.726 168.228C209.55 169.137 207.813 169.069 206.418 169.015C206.159 169.005 205.91 168.995 205.676 168.992C204.729 168.986 203.783 168.928 202.843 168.817C202.128 168.715 201.422 168.553 200.733 168.333L200.137 168.164C198.188 167.631 195.777 166.971 194.557 168.754C193.614 170.134 194.894 172.007 196.055 172.84C196.981 173.465 197.953 174.021 198.961 174.502L199.367 174.709C201.134 175.493 203.053 175.871 204.985 175.817C205.353 175.835 205.727 175.854 206.111 175.877C206.135 175.878 206.159 175.882 206.182 175.887C206.678 175.812 208.075 175.547 209.227 175.33C210.977 175 212.059 174.798 212.327 174.774C212.49 174.752 212.655 174.771 212.809 174.829C212.962 174.887 213.099 174.982 213.207 175.106C213.757 175.731 213.54 176.997 213.271 178.241C213.24 178.387 213.213 178.507 213.199 178.591C212.732 181.4 212.617 184.256 212.855 187.094C212.851 188.175 213.136 189.238 213.682 190.171C214.013 190.575 214.39 190.94 214.804 191.258C215.29 191.65 215.417 191.626 216.118 191.502C216.244 191.48 216.373 191.461 216.502 191.443C216.839 191.42 217.168 191.334 217.473 191.19C218.509 190.624 219.333 189.736 219.821 188.66C219.86 188.572 219.924 188.497 220.005 188.445C220.086 188.392 220.181 188.364 220.277 188.364Z" fill="black"/>
<path d="M221.465 185.967C221.385 185.967 221.306 185.948 221.235 185.911C221.164 185.874 221.103 185.821 221.057 185.755C221.011 185.69 220.981 185.614 220.97 185.535C220.96 185.456 220.968 185.375 220.995 185.3L221.086 185.04C221.493 184.025 221.782 182.967 221.947 181.886C222.031 181.206 222.093 180.521 222.155 179.836C222.228 179.033 222.3 178.229 222.407 177.432C222.613 176.047 222.686 174.646 222.625 173.248C222.423 171.364 221.984 169.514 221.32 167.74C221.167 167.274 221.019 166.807 220.874 166.339C220.854 166.276 220.846 166.209 220.852 166.143C220.857 166.077 220.876 166.013 220.906 165.954C220.937 165.895 220.979 165.843 221.03 165.801C221.081 165.759 221.14 165.727 221.203 165.707C221.267 165.688 221.333 165.681 221.399 165.688C221.465 165.694 221.529 165.714 221.587 165.746C221.646 165.777 221.697 165.82 221.739 165.871C221.781 165.923 221.811 165.982 221.83 166.046C221.967 166.497 222.118 166.959 222.271 167.431C222.965 169.286 223.419 171.221 223.623 173.191C223.688 174.652 223.613 176.117 223.398 177.564C223.293 178.348 223.222 179.138 223.15 179.928C223.087 180.622 223.024 181.318 222.94 182.008C222.766 183.162 222.46 184.291 222.028 185.375L221.937 185.634C221.902 185.731 221.838 185.816 221.754 185.876C221.669 185.935 221.568 185.967 221.465 185.967ZM230.382 185.643C230.275 185.643 230.171 185.609 230.086 185.545C230.033 185.506 229.988 185.457 229.954 185.401C229.92 185.344 229.898 185.282 229.888 185.217C229.878 185.152 229.881 185.086 229.897 185.022C229.913 184.958 229.941 184.898 229.98 184.845C230.177 184.519 230.315 184.162 230.39 183.789C230.43 183.644 230.469 183.499 230.512 183.361C230.575 183.157 230.642 182.954 230.71 182.75C230.885 182.255 231.031 181.749 231.147 181.237C231.362 180.028 231.474 178.802 231.484 177.574L231.493 177.274C231.554 176.08 231.54 174.883 231.449 173.691C231.165 171.394 230.737 169.118 230.166 166.875C229.992 166.125 229.82 165.382 229.661 164.65C229.633 164.52 229.657 164.385 229.729 164.273C229.801 164.162 229.914 164.083 230.044 164.055C230.174 164.027 230.309 164.051 230.421 164.123C230.532 164.195 230.611 164.308 230.639 164.438C230.796 165.165 230.968 165.904 231.141 166.649C231.722 168.933 232.157 171.252 232.444 173.592C232.539 174.826 232.556 176.066 232.493 177.302L232.483 177.604C232.472 178.889 232.353 180.171 232.128 181.437C232.005 181.988 231.849 182.532 231.66 183.064C231.594 183.264 231.528 183.461 231.467 183.658C231.427 183.784 231.392 183.916 231.357 184.05C231.254 184.545 231.06 185.016 230.785 185.44C230.739 185.503 230.678 185.554 230.608 185.59C230.538 185.625 230.46 185.643 230.382 185.643ZM240.322 183.458C240.279 183.458 240.236 183.452 240.194 183.441C240.066 183.407 239.957 183.324 239.89 183.21C239.823 183.095 239.804 182.959 239.838 182.831C240.539 180.232 240.785 177.53 240.563 174.847C240.134 171.525 239.286 168.27 238.039 165.161L237.629 163.992C237.607 163.93 237.598 163.864 237.602 163.799C237.606 163.733 237.623 163.669 237.651 163.61C237.68 163.551 237.72 163.498 237.769 163.454C237.818 163.411 237.875 163.377 237.937 163.355C238 163.334 238.065 163.325 238.131 163.329C238.196 163.333 238.26 163.349 238.32 163.378C238.379 163.407 238.432 163.447 238.475 163.496C238.519 163.545 238.552 163.602 238.574 163.664L238.982 164.829C240.253 168.018 241.119 171.354 241.559 174.759C241.791 177.557 241.536 180.374 240.805 183.085C240.777 183.192 240.714 183.286 240.627 183.354C240.54 183.421 240.432 183.458 240.322 183.458ZM223.246 261.111C223.121 261.111 223 261.064 222.908 260.979C222.815 260.894 222.759 260.778 222.748 260.653C222.738 260.528 222.774 260.403 222.851 260.304C222.928 260.205 223.039 260.139 223.163 260.118L297.444 247.616C298.097 247.505 298.68 247.14 299.065 246.6C299.449 246.06 299.604 245.39 299.495 244.736L286.291 166.243C286.18 165.589 285.815 165.007 285.275 164.622C284.735 164.238 284.065 164.084 283.411 164.193L247.399 170.255C247.334 170.267 247.267 170.266 247.202 170.252C247.137 170.238 247.076 170.211 247.021 170.173C246.967 170.135 246.921 170.086 246.885 170.03C246.85 169.974 246.826 169.912 246.815 169.846C246.804 169.781 246.806 169.714 246.821 169.649C246.836 169.585 246.864 169.524 246.903 169.47C246.942 169.416 246.991 169.371 247.048 169.336C247.104 169.302 247.167 169.279 247.233 169.269L283.244 163.206C284.159 163.053 285.098 163.27 285.854 163.808C286.61 164.346 287.122 165.162 287.277 166.077L300.481 244.57C300.635 245.485 300.419 246.424 299.881 247.181C299.343 247.937 298.526 248.449 297.611 248.603L223.329 261.104C223.302 261.109 223.274 261.111 223.246 261.111ZM168.886 183.46C168.762 183.458 168.642 183.411 168.551 183.326C168.46 183.241 168.404 183.126 168.394 183.002C168.383 182.878 168.419 182.754 168.495 182.656C168.571 182.557 168.681 182.49 168.803 182.468L212.823 175.058C212.954 175.036 213.088 175.067 213.196 175.144C213.304 175.221 213.377 175.338 213.399 175.468C213.421 175.599 213.391 175.734 213.314 175.842C213.237 175.95 213.12 176.023 212.989 176.045L168.969 183.455C168.942 183.459 168.914 183.46 168.886 183.46Z" fill="black"/>
<path d="M473.906 207.21H293.606C293.473 207.21 293.346 207.157 293.252 207.063C293.159 206.97 293.106 206.842 293.106 206.71C293.106 206.577 293.159 206.45 293.252 206.356C293.346 206.262 293.473 206.21 293.606 206.21H473.906C474.834 206.209 475.724 205.84 476.38 205.184C477.036 204.527 477.405 203.638 477.406 202.71V30.5498C477.405 29.6219 477.036 28.7322 476.38 28.0761C475.724 27.42 474.834 27.0509 473.906 27.0498H111.506C110.578 27.0509 109.688 27.42 109.032 28.0761C108.376 28.7322 108.007 29.6219 108.006 30.5498V202.71C108.007 203.638 108.376 204.527 109.032 205.184C109.688 205.84 110.578 206.209 111.506 206.21H125.136C125.269 206.21 125.396 206.262 125.49 206.356C125.583 206.45 125.636 206.577 125.636 206.71C125.636 206.842 125.583 206.97 125.49 207.063C125.396 207.157 125.269 207.21 125.136 207.21H111.506C110.313 207.208 109.169 206.734 108.325 205.89C107.482 205.047 107.007 203.903 107.006 202.71V30.5498C107.007 29.3567 107.482 28.2129 108.325 27.3693C109.169 26.5257 110.313 26.0511 111.506 26.0498H473.906C475.099 26.0511 476.243 26.5257 477.086 27.3693C477.93 28.2129 478.405 29.3567 478.406 30.5498V202.71C478.405 203.903 477.93 205.047 477.086 205.89C476.243 206.734 475.099 207.208 473.906 207.21Z" fill="black"/>
<path d="M434.063 169.042H339.783C337.574 169.042 335.783 170.833 335.783 173.042V246.647C335.783 248.856 337.574 250.647 339.783 250.647H434.063C436.272 250.647 438.063 248.856 438.063 246.647V173.042C438.063 170.833 436.272 169.042 434.063 169.042Z" fill="#E5E5E5"/>
<path d="M321.666 133.021H316.666C316.533 133.021 316.406 132.968 316.313 132.875C316.219 132.781 316.166 132.654 316.166 132.521C316.166 132.389 316.219 132.261 316.313 132.168C316.406 132.074 316.533 132.021 316.666 132.021H321.666C321.799 132.021 321.926 132.074 322.02 132.168C322.113 132.261 322.166 132.389 322.166 132.521C322.166 132.654 322.113 132.781 322.02 132.875C321.926 132.968 321.799 133.021 321.666 133.021ZM311.666 133.021H306.666C306.533 133.021 306.406 132.968 306.313 132.875C306.219 132.781 306.166 132.654 306.166 132.521C306.166 132.389 306.219 132.261 306.313 132.168C306.406 132.074 306.533 132.021 306.666 132.021H311.666C311.799 132.021 311.926 132.074 312.02 132.168C312.113 132.261 312.166 132.389 312.166 132.521C312.166 132.654 312.113 132.781 312.02 132.875C311.926 132.968 311.799 133.021 311.666 133.021ZM301.666 133.021H296.666C296.533 133.021 296.406 132.968 296.313 132.875C296.219 132.781 296.166 132.654 296.166 132.521C296.166 132.389 296.219 132.261 296.313 132.168C296.406 132.074 296.533 132.021 296.666 132.021H301.666C301.799 132.021 301.926 132.074 302.02 132.168C302.113 132.261 302.166 132.389 302.166 132.521C302.166 132.654 302.113 132.781 302.02 132.875C301.926 132.968 301.799 133.021 301.666 133.021ZM291.666 133.021H286.666C286.533 133.021 286.406 132.968 286.313 132.875C286.219 132.781 286.166 132.654 286.166 132.521C286.166 132.389 286.219 132.261 286.313 132.168C286.406 132.074 286.533 132.021 286.666 132.021H291.666C291.799 132.021 291.926 132.074 292.02 132.168C292.113 132.261 292.166 132.389 292.166 132.521C292.166 132.654 292.113 132.781 292.02 132.875C291.926 132.968 291.799 133.021 291.666 133.021ZM281.666 133.021H276.666C276.533 133.021 276.406 132.968 276.313 132.875C276.219 132.781 276.166 132.654 276.166 132.521C276.166 132.389 276.219 132.261 276.313 132.168C276.406 132.074 276.533 132.021 276.666 132.021H281.666C281.799 132.021 281.926 132.074 282.02 132.168C282.113 132.261 282.166 132.389 282.166 132.521C282.166 132.654 282.113 132.781 282.02 132.875C281.926 132.968 281.799 133.021 281.666 133.021ZM271.666 133.021H266.666C266.533 133.021 266.406 132.968 266.313 132.875C266.219 132.781 266.166 132.654 266.166 132.521C266.166 132.389 266.219 132.261 266.313 132.168C266.406 132.074 266.533 132.021 266.666 132.021H271.666C271.799 132.021 271.926 132.074 272.02 132.168C272.113 132.261 272.166 132.389 272.166 132.521C272.166 132.654 272.113 132.781 272.02 132.875C271.926 132.968 271.799 133.021 271.666 133.021ZM261.666 133.021H256.666C256.533 133.021 256.406 132.968 256.313 132.875C256.219 132.781 256.166 132.654 256.166 132.521C256.166 132.389 256.219 132.261 256.313 132.168C256.406 132.074 256.533 132.021 256.666 132.021H261.666C261.799 132.021 261.926 132.074 262.02 132.168C262.113 132.261 262.166 132.389 262.166 132.521C262.166 132.654 262.113 132.781 262.02 132.875C261.926 132.968 261.799 133.021 261.666 133.021ZM251.666 133.021H246.666C246.533 133.021 246.406 132.968 246.313 132.875C246.219 132.781 246.166 132.654 246.166 132.521C246.166 132.389 246.219 132.261 246.313 132.168C246.406 132.074 246.533 132.021 246.666 132.021H251.666C251.799 132.021 251.926 132.074 252.02 132.168C252.113 132.261 252.166 132.389 252.166 132.521C252.166 132.654 252.113 132.781 252.02 132.875C251.926 132.968 251.799 133.021 251.666 133.021ZM241.666 133.021H236.666C236.533 133.021 236.406 132.968 236.313 132.875C236.219 132.781 236.166 132.654 236.166 132.521C236.166 132.389 236.219 132.261 236.313 132.168C236.406 132.074 236.533 132.021 236.666 132.021H241.666C241.799 132.021 241.926 132.074 242.02 132.168C242.113 132.261 242.166 132.389 242.166 132.521C242.166 132.654 242.113 132.781 242.02 132.875C241.926 132.968 241.799 133.021 241.666 133.021ZM231.666 133.021H226.666C226.533 133.021 226.406 132.968 226.313 132.875C226.219 132.781 226.166 132.654 226.166 132.521C226.166 132.389 226.219 132.261 226.313 132.168C226.406 132.074 226.533 132.021 226.666 132.021H231.666C231.799 132.021 231.926 132.074 232.02 132.168C232.113 132.261 232.166 132.389 232.166 132.521C232.166 132.654 232.113 132.781 232.02 132.875C231.926 132.968 231.799 133.021 231.666 133.021ZM221.666 133.021H216.666C216.533 133.021 216.406 132.968 216.313 132.875C216.219 132.781 216.166 132.654 216.166 132.521C216.166 132.389 216.219 132.261 216.313 132.168C216.406 132.074 216.533 132.021 216.666 132.021H221.666C221.799 132.021 221.926 132.074 222.02 132.168C222.113 132.261 222.166 132.389 222.166 132.521C222.166 132.654 222.113 132.781 222.02 132.875C221.926 132.968 221.799 133.021 221.666 133.021ZM211.666 133.021H206.666C206.533 133.021 206.406 132.968 206.313 132.875C206.219 132.781 206.166 132.654 206.166 132.521C206.166 132.389 206.219 132.261 206.313 132.168C206.406 132.074 206.533 132.021 206.666 132.021H211.666C211.799 132.021 211.926 132.074 212.02 132.168C212.113 132.261 212.166 132.389 212.166 132.521C212.166 132.654 212.113 132.781 212.02 132.875C211.926 132.968 211.799 133.021 211.666 133.021ZM322.831 132.85C322.711 132.851 322.595 132.808 322.503 132.729C322.412 132.651 322.352 132.542 322.335 132.423C322.317 132.305 322.343 132.183 322.408 132.082C322.472 131.98 322.571 131.906 322.686 131.871C323.39 131.658 324.008 131.228 324.453 130.643C324.898 130.058 325.147 129.347 325.165 128.612C325.168 128.482 325.223 128.358 325.316 128.267C325.409 128.176 325.535 128.125 325.665 128.125H325.678C325.744 128.127 325.808 128.141 325.868 128.168C325.928 128.195 325.983 128.233 326.028 128.281C326.073 128.328 326.108 128.384 326.132 128.446C326.156 128.507 326.167 128.573 326.165 128.638C326.142 129.583 325.821 130.497 325.249 131.249C324.677 132.001 323.882 132.554 322.977 132.828C322.93 132.843 322.881 132.85 322.831 132.85ZM201.688 132.82C201.635 132.82 201.582 132.811 201.531 132.794C200.633 132.498 199.852 131.926 199.298 131.16C198.744 130.394 198.446 129.473 198.446 128.527C198.446 128.395 198.499 128.267 198.593 128.174C198.686 128.08 198.813 128.027 198.946 128.027C199.078 128.027 199.205 128.08 199.299 128.173C199.393 128.266 199.446 128.393 199.446 128.525C199.446 129.261 199.677 129.978 200.108 130.574C200.539 131.17 201.147 131.615 201.846 131.845C201.958 131.883 202.054 131.959 202.115 132.061C202.176 132.162 202.199 132.282 202.18 132.399C202.162 132.516 202.102 132.623 202.011 132.7C201.921 132.777 201.807 132.819 201.688 132.819V132.82ZM325.666 124.125C325.533 124.125 325.406 124.072 325.313 123.979C325.219 123.885 325.166 123.758 325.166 123.625V118.625C325.166 118.493 325.219 118.365 325.313 118.272C325.406 118.178 325.533 118.125 325.666 118.125C325.799 118.125 325.926 118.178 326.02 118.272C326.113 118.365 326.166 118.493 326.166 118.625V123.625C326.166 123.758 326.113 123.885 326.02 123.979C325.926 124.072 325.799 124.125 325.666 124.125ZM198.946 124.027C198.813 124.027 198.686 123.974 198.593 123.881C198.499 123.787 198.446 123.66 198.446 123.527V118.527C198.446 118.395 198.499 118.267 198.593 118.174C198.686 118.08 198.813 118.027 198.946 118.027C199.079 118.027 199.206 118.08 199.3 118.174C199.393 118.267 199.446 118.395 199.446 118.527V123.527C199.446 123.66 199.393 123.787 199.3 123.881C199.206 123.974 199.079 124.027 198.946 124.027ZM325.666 114.125C325.533 114.125 325.406 114.072 325.313 113.979C325.219 113.885 325.166 113.758 325.166 113.625V108.625C325.166 108.493 325.219 108.365 325.313 108.272C325.406 108.178 325.533 108.125 325.666 108.125C325.799 108.125 325.926 108.178 326.02 108.272C326.113 108.365 326.166 108.493 326.166 108.625V113.625C326.166 113.758 326.113 113.885 326.02 113.979C325.926 114.072 325.799 114.125 325.666 114.125ZM198.946 114.027C198.813 114.027 198.686 113.974 198.593 113.881C198.499 113.787 198.446 113.66 198.446 113.527V108.527C198.446 108.395 198.499 108.267 198.593 108.174C198.686 108.08 198.813 108.027 198.946 108.027C199.079 108.027 199.206 108.08 199.3 108.174C199.393 108.267 199.446 108.395 199.446 108.527V113.527C199.446 113.66 199.393 113.787 199.3 113.881C199.206 113.974 199.079 114.027 198.946 114.027ZM325.666 104.125C325.533 104.125 325.406 104.072 325.313 103.979C325.219 103.885 325.166 103.758 325.166 103.625V98.6252C325.166 98.4926 325.219 98.3654 325.313 98.2716C325.406 98.1778 325.533 98.1252 325.666 98.1252C325.799 98.1252 325.926 98.1778 326.02 98.2716C326.113 98.3654 326.166 98.4926 326.166 98.6252V103.625C326.166 103.758 326.113 103.885 326.02 103.979C325.926 104.072 325.799 104.125 325.666 104.125ZM198.946 104.027C198.813 104.027 198.686 103.974 198.593 103.881C198.499 103.787 198.446 103.66 198.446 103.527V98.5272C198.446 98.3946 198.499 98.2674 198.593 98.1736C198.686 98.0798 198.813 98.0272 198.946 98.0272C199.079 98.0272 199.206 98.0798 199.3 98.1736C199.393 98.2674 199.446 98.3946 199.446 98.5272V103.527C199.446 103.66 199.393 103.787 199.3 103.881C199.206 103.974 199.079 104.027 198.946 104.027ZM325.666 94.1252C325.533 94.1252 325.406 94.0725 325.313 93.9787C325.219 93.885 325.166 93.7578 325.166 93.6252V88.6252C325.166 88.4926 325.219 88.3654 325.313 88.2716C325.406 88.1778 325.533 88.1252 325.666 88.1252C325.799 88.1252 325.926 88.1778 326.02 88.2716C326.113 88.3654 326.166 88.4926 326.166 88.6252V93.6252C326.166 93.7578 326.113 93.885 326.02 93.9787C325.926 94.0725 325.799 94.1252 325.666 94.1252ZM198.946 94.0272C198.813 94.0272 198.686 93.9745 198.593 93.8807C198.499 93.787 198.446 93.6598 198.446 93.5272V88.5272C198.446 88.3946 198.499 88.2674 198.593 88.1736C198.686 88.0798 198.813 88.0272 198.946 88.0272C199.079 88.0272 199.206 88.0798 199.3 88.1736C199.393 88.2674 199.446 88.3946 199.446 88.5272V93.5272C199.446 93.6598 199.393 93.787 199.3 93.8807C199.206 93.9745 199.079 94.0272 198.946 94.0272ZM325.666 84.1252C325.533 84.1252 325.406 84.0725 325.313 83.9787C325.219 83.885 325.166 83.7578 325.166 83.6252V78.6252C325.166 78.4926 325.219 78.3654 325.313 78.2716C325.406 78.1778 325.533 78.1252 325.666 78.1252C325.799 78.1252 325.926 78.1778 326.02 78.2716C326.113 78.3654 326.166 78.4926 326.166 78.6252V83.6252C326.166 83.7578 326.113 83.885 326.02 83.9787C325.926 84.0725 325.799 84.1252 325.666 84.1252ZM198.946 84.0272C198.813 84.0272 198.686 83.9745 198.593 83.8807C198.499 83.787 198.446 83.6598 198.446 83.5272V78.5272C198.446 78.3946 198.499 78.2674 198.593 78.1736C198.686 78.0798 198.813 78.0272 198.946 78.0272C199.079 78.0272 199.206 78.0798 199.3 78.1736C199.393 78.2674 199.446 78.3946 199.446 78.5272V83.5272C199.446 83.6598 199.393 83.787 199.3 83.8807C199.206 83.9745 199.079 84.0272 198.946 84.0272ZM325.666 74.1252C325.533 74.1252 325.406 74.0725 325.313 73.9787C325.219 73.885 325.166 73.7578 325.166 73.6252V71.7222C325.168 70.8072 324.81 69.9281 324.169 69.2752C324.122 69.2284 324.085 69.1728 324.06 69.1116C324.035 69.0504 324.022 68.9848 324.022 68.9186C324.022 68.8524 324.036 68.7869 324.062 68.7259C324.087 68.6649 324.125 68.6097 324.172 68.5634C324.22 68.5171 324.276 68.4807 324.337 68.4563C324.399 68.4318 324.465 68.4198 324.531 68.421C324.597 68.4222 324.662 68.4365 324.723 68.4632C324.784 68.4898 324.838 68.5282 324.884 68.5762C325.709 69.4153 326.169 70.5457 326.166 71.7222V73.6252C326.166 73.7578 326.113 73.885 326.02 73.9787C325.926 74.0725 325.799 74.1252 325.666 74.1252ZM198.946 74.0272C198.813 74.0272 198.686 73.9745 198.593 73.8807C198.499 73.787 198.446 73.6598 198.446 73.5272V71.7222C198.444 71.1211 198.564 70.5258 198.797 69.972C199.031 69.4182 199.374 68.9172 199.806 68.4992C199.901 68.4083 200.029 68.3588 200.161 68.3613C200.292 68.3638 200.418 68.4182 200.509 68.5127C200.601 68.6071 200.652 68.734 200.651 68.8657C200.65 68.9975 200.597 69.1234 200.503 69.2162C200.167 69.5412 199.9 69.9307 199.719 70.3613C199.537 70.7919 199.444 71.2548 199.446 71.7222V73.5272C199.446 73.6598 199.393 73.787 199.3 73.8807C199.206 73.9745 199.079 74.0272 198.946 74.0272ZM319.854 68.2222H314.854C314.721 68.2222 314.594 68.1695 314.501 68.0757C314.407 67.982 314.354 67.8548 314.354 67.7222C314.354 67.5896 314.407 67.4624 314.501 67.3686C314.594 67.2748 314.721 67.2222 314.854 67.2222H319.854C319.987 67.2222 320.114 67.2748 320.208 67.3686C320.301 67.4624 320.354 67.5896 320.354 67.7222C320.354 67.8548 320.301 67.982 320.208 68.0757C320.114 68.1695 319.987 68.2222 319.854 68.2222ZM309.854 68.2222H304.854C304.721 68.2222 304.594 68.1695 304.501 68.0757C304.407 67.982 304.354 67.8548 304.354 67.7222C304.354 67.5896 304.407 67.4624 304.501 67.3686C304.594 67.2748 304.721 67.2222 304.854 67.2222H309.854C309.987 67.2222 310.114 67.2748 310.208 67.3686C310.301 67.4624 310.354 67.5896 310.354 67.7222C310.354 67.8548 310.301 67.982 310.208 68.0757C310.114 68.1695 309.987 68.2222 309.854 68.2222ZM299.854 68.2222H294.854C294.721 68.2222 294.594 68.1695 294.501 68.0757C294.407 67.982 294.354 67.8548 294.354 67.7222C294.354 67.5896 294.407 67.4624 294.501 67.3686C294.594 67.2748 294.721 67.2222 294.854 67.2222H299.854C299.987 67.2222 300.114 67.2748 300.208 67.3686C300.301 67.4624 300.354 67.5896 300.354 67.7222C300.354 67.8548 300.301 67.982 300.208 68.0757C300.114 68.1695 299.987 68.2222 299.854 68.2222ZM289.854 68.2222H284.854C284.721 68.2222 284.594 68.1695 284.501 68.0757C284.407 67.982 284.354 67.8548 284.354 67.7222C284.354 67.5896 284.407 67.4624 284.501 67.3686C284.594 67.2748 284.721 67.2222 284.854 67.2222H289.854C289.987 67.2222 290.114 67.2748 290.208 67.3686C290.301 67.4624 290.354 67.5896 290.354 67.7222C290.354 67.8548 290.301 67.982 290.208 68.0757C290.114 68.1695 289.987 68.2222 289.854 68.2222ZM279.854 68.2222H274.854C274.721 68.2222 274.594 68.1695 274.501 68.0757C274.407 67.982 274.354 67.8548 274.354 67.7222C274.354 67.5896 274.407 67.4624 274.501 67.3686C274.594 67.2748 274.721 67.2222 274.854 67.2222H279.854C279.987 67.2222 280.114 67.2748 280.208 67.3686C280.301 67.4624 280.354 67.5896 280.354 67.7222C280.354 67.8548 280.301 67.982 280.208 68.0757C280.114 68.1695 279.987 68.2222 279.854 68.2222ZM269.854 68.2222H264.854C264.721 68.2222 264.594 68.1695 264.501 68.0757C264.407 67.982 264.354 67.8548 264.354 67.7222C264.354 67.5896 264.407 67.4624 264.501 67.3686C264.594 67.2748 264.721 67.2222 264.854 67.2222H269.854C269.987 67.2222 270.114 67.2748 270.208 67.3686C270.301 67.4624 270.354 67.5896 270.354 67.7222C270.354 67.8548 270.301 67.982 270.208 68.0757C270.114 68.1695 269.987 68.2222 269.854 68.2222ZM259.854 68.2222H254.855C254.722 68.2222 254.595 68.1695 254.502 68.0757C254.408 67.982 254.355 67.8548 254.355 67.7222C254.355 67.5896 254.408 67.4624 254.502 67.3686C254.595 67.2748 254.722 67.2222 254.855 67.2222H259.855C259.988 67.2222 260.115 67.2748 260.209 67.3686C260.302 67.4624 260.355 67.5896 260.355 67.7222C260.355 67.8548 260.302 67.982 260.209 68.0757C260.115 68.1695 259.988 68.2222 259.855 68.2222H259.854ZM249.855 68.2222H244.855C244.722 68.2222 244.595 68.1695 244.502 68.0757C244.408 67.982 244.355 67.8548 244.355 67.7222C244.355 67.5896 244.408 67.4624 244.502 67.3686C244.595 67.2748 244.722 67.2222 244.855 67.2222H249.855C249.988 67.2222 250.115 67.2748 250.209 67.3686C250.302 67.4624 250.355 67.5896 250.355 67.7222C250.355 67.8548 250.302 67.982 250.209 68.0757C250.115 68.1695 249.988 68.2222 249.855 68.2222ZM239.855 68.2222H234.855C234.722 68.2222 234.595 68.1695 234.502 68.0757C234.408 67.982 234.355 67.8548 234.355 67.7222C234.355 67.5896 234.408 67.4624 234.502 67.3686C234.595 67.2748 234.722 67.2222 234.855 67.2222H239.855C239.988 67.2222 240.115 67.2748 240.209 67.3686C240.302 67.4624 240.355 67.5896 240.355 67.7222C240.355 67.8548 240.302 67.982 240.209 68.0757C240.115 68.1695 239.988 68.2222 239.855 68.2222ZM229.855 68.2222H224.855C224.722 68.2222 224.595 68.1695 224.502 68.0757C224.408 67.982 224.355 67.8548 224.355 67.7222C224.355 67.5896 224.408 67.4624 224.502 67.3686C224.595 67.2748 224.722 67.2222 224.855 67.2222H229.855C229.988 67.2222 230.115 67.2748 230.209 67.3686C230.302 67.4624 230.355 67.5896 230.355 67.7222C230.355 67.8548 230.302 67.982 230.209 68.0757C230.115 68.1695 229.988 68.2222 229.855 68.2222ZM219.855 68.2222H214.855C214.722 68.2222 214.595 68.1695 214.502 68.0757C214.408 67.982 214.355 67.8548 214.355 67.7222C214.355 67.5896 214.408 67.4624 214.502 67.3686C214.595 67.2748 214.722 67.2222 214.855 67.2222H219.855C219.988 67.2222 220.115 67.2748 220.209 67.3686C220.302 67.4624 220.355 67.5896 220.355 67.7222C220.355 67.8548 220.302 67.982 220.209 68.0757C220.115 68.1695 219.988 68.2222 219.855 68.2222ZM209.855 68.2222H204.855C204.722 68.2222 204.595 68.1695 204.502 68.0757C204.408 67.982 204.355 67.8548 204.355 67.7222C204.355 67.5896 204.408 67.4624 204.502 67.3686C204.595 67.2748 204.722 67.2222 204.855 67.2222H209.855C209.988 67.2222 210.115 67.2748 210.209 67.3686C210.302 67.4624 210.355 67.5896 210.355 67.7222C210.355 67.8548 210.302 67.982 210.209 68.0757C210.115 68.1695 209.988 68.2222 209.855 68.2222ZM371.022 334.021H300.543C299.35 334.02 298.206 333.545 297.363 332.702C296.519 331.858 296.044 330.714 296.043 329.521V279.921C296.044 278.728 296.519 277.584 297.363 276.741C298.206 275.897 299.35 275.422 300.543 275.421H371.023C372.216 275.422 373.36 275.897 374.204 276.741C375.047 277.584 375.522 278.728 375.523 279.921V329.521C375.522 330.714 375.047 331.858 374.204 332.702C373.36 333.545 372.216 334.02 371.023 334.021H371.022ZM300.543 276.421C299.615 276.422 298.726 276.791 298.069 277.447C297.413 278.104 297.044 278.993 297.043 279.921V329.521C297.044 330.449 297.413 331.339 298.069 331.995C298.726 332.651 299.615 333.02 300.543 333.021H371.023C371.951 333.02 372.841 332.651 373.497 331.995C374.153 331.339 374.522 330.449 374.523 329.521V279.921C374.522 278.993 374.153 278.104 373.497 277.447C372.841 276.791 371.951 276.422 371.023 276.421H300.543Z" fill="black"/>
<path d="M442.287 68.04H390.923C388.714 68.04 386.923 69.8309 386.923 72.04V107.61C386.923 109.819 388.714 111.61 390.923 111.61H442.287C444.496 111.61 446.287 109.819 446.287 107.61V72.04C446.287 69.8309 444.496 68.04 442.287 68.04Z" fill="#EF5350"/>
<path d="M119.746 41.2802C121.983 41.2802 123.796 39.4669 123.796 37.2302C123.796 34.9934 121.983 33.1802 119.746 33.1802C117.509 33.1802 115.696 34.9934 115.696 37.2302C115.696 39.4669 117.509 41.2802 119.746 41.2802Z" fill="#D32F2F"/>
<path d="M134.866 41.2802C137.103 41.2802 138.916 39.4669 138.916 37.2302C138.916 34.9934 137.103 33.1802 134.866 33.1802C132.629 33.1802 130.816 34.9934 130.816 37.2302C130.816 39.4669 132.629 41.2802 134.866 41.2802Z" fill="#F2A900"/>
<path d="M149.986 41.2802C152.223 41.2802 154.036 39.4669 154.036 37.2302C154.036 34.9934 152.223 33.1802 149.986 33.1802C147.749 33.1802 145.936 34.9934 145.936 37.2302C145.936 39.4669 147.749 41.2802 149.986 41.2802Z" fill="#4CAF50"/>
<path d="M446.286 121.774H360.506C360.373 121.774 360.246 121.721 360.152 121.628C360.059 121.534 360.006 121.407 360.006 121.274C360.006 121.141 360.059 121.014 360.152 120.921C360.246 120.827 360.373 120.774 360.506 120.774H446.286C446.419 120.774 446.546 120.827 446.64 120.921C446.733 121.014 446.786 121.141 446.786 121.274C446.786 121.407 446.733 121.534 446.64 121.628C446.546 121.721 446.419 121.774 446.286 121.774ZM446.286 133.021H340.506C340.373 133.021 340.246 132.968 340.152 132.875C340.059 132.781 340.006 132.654 340.006 132.521C340.006 132.388 340.059 132.261 340.152 132.168C340.246 132.074 340.373 132.021 340.506 132.021H446.286C446.419 132.021 446.546 132.074 446.64 132.168C446.733 132.261 446.786 132.388 446.786 132.521C446.786 132.654 446.733 132.781 446.64 132.875C446.546 132.968 446.419 133.021 446.286 133.021ZM446.286 144.268H350.506C350.373 144.268 350.246 144.215 350.152 144.122C350.059 144.028 350.006 143.901 350.006 143.768C350.006 143.635 350.059 143.508 350.152 143.415C350.246 143.321 350.373 143.268 350.506 143.268H446.286C446.419 143.268 446.546 143.321 446.64 143.415C446.733 143.508 446.786 143.635 446.786 143.768C446.786 143.901 446.733 144.028 446.64 144.122C446.546 144.215 446.419 144.268 446.286 144.268ZM152.926 223.345L157.506 245.991H164.666C164.666 245.991 152.752 228.418 152.926 223.345ZM440.937 105.925C440.841 105.925 440.747 105.897 440.667 105.845L392.003 74.6451C391.944 74.6113 391.893 74.566 391.853 74.5118C391.812 74.4577 391.783 74.3959 391.767 74.3302C391.751 74.2645 391.748 74.1962 391.76 74.1295C391.771 74.0628 391.795 73.9991 391.832 73.9421C391.868 73.8852 391.916 73.8362 391.972 73.7982C392.028 73.7602 392.091 73.734 392.157 73.7211C392.224 73.7082 392.292 73.7089 392.358 73.7232C392.424 73.7374 392.487 73.7649 392.542 73.8041L441.206 105.004C441.297 105.063 441.366 105.149 441.403 105.25C441.441 105.351 441.445 105.461 441.414 105.565C441.384 105.668 441.321 105.759 441.235 105.824C441.149 105.889 441.044 105.924 440.936 105.924L440.937 105.925Z" fill="black"/>
<path d="M392.272 105.925C392.164 105.925 392.059 105.89 391.972 105.825C391.886 105.76 391.822 105.669 391.792 105.565C391.762 105.462 391.766 105.351 391.803 105.25C391.841 105.148 391.911 105.062 392.002 105.004L440.667 73.8038C440.779 73.7321 440.914 73.7078 441.044 73.7361C441.173 73.7645 441.286 73.8431 441.358 73.9548C441.43 74.0664 441.454 74.2019 441.426 74.3315C441.397 74.4611 441.319 74.5741 441.207 74.6458L392.542 105.846C392.462 105.898 392.368 105.925 392.272 105.925ZM369.128 326.6C369.032 326.6 368.938 326.573 368.858 326.521L302.168 283.764C302.113 283.728 302.065 283.682 302.027 283.628C301.99 283.574 301.963 283.514 301.949 283.45C301.935 283.385 301.934 283.319 301.946 283.254C301.957 283.19 301.982 283.128 302.017 283.073C302.052 283.017 302.098 282.97 302.152 282.932C302.206 282.895 302.267 282.868 302.331 282.854C302.395 282.84 302.462 282.839 302.526 282.85C302.591 282.862 302.653 282.886 302.708 282.922L369.398 325.68C369.489 325.738 369.558 325.824 369.595 325.926C369.633 326.027 369.637 326.137 369.606 326.241C369.576 326.344 369.513 326.435 369.427 326.5C369.341 326.564 369.236 326.599 369.128 326.6Z" fill="black"/>
<path d="M302.438 326.6C302.33 326.6 302.225 326.565 302.139 326.5C302.053 326.435 301.99 326.344 301.96 326.241C301.929 326.137 301.933 326.027 301.971 325.926C302.008 325.825 302.077 325.738 302.168 325.68L368.858 282.922C368.97 282.85 369.105 282.826 369.235 282.854C369.364 282.883 369.477 282.961 369.549 283.073C369.621 283.185 369.645 283.32 369.617 283.45C369.588 283.579 369.51 283.692 369.398 283.764L302.707 326.521C302.627 326.573 302.533 326.601 302.437 326.601L302.438 326.6Z" fill="black"/>
<path d="M350.83 232.683L377.688 205.825C377.876 205.638 378.13 205.532 378.395 205.532C378.66 205.532 378.914 205.638 379.102 205.825L395.208 221.931C395.396 222.118 395.65 222.224 395.915 222.224C396.18 222.224 396.435 222.118 396.622 221.931L403.848 214.705C404.036 214.518 404.29 214.412 404.555 214.412C404.82 214.412 405.074 214.518 405.262 214.705L423.015 232.459C423.155 232.599 423.25 232.776 423.288 232.97C423.327 233.164 423.308 233.364 423.232 233.547C423.157 233.729 423.03 233.886 422.866 233.996C422.702 234.106 422.509 234.165 422.312 234.166L351.54 234.39C351.342 234.391 351.148 234.332 350.983 234.223C350.819 234.113 350.69 233.957 350.614 233.774C350.538 233.591 350.518 233.39 350.556 233.196C350.595 233.001 350.69 232.823 350.83 232.683Z" fill="#48A085"/>
<path d="M398.195 203.078C401.84 203.078 404.795 200.123 404.795 196.478C404.795 192.833 401.84 189.878 398.195 189.878C394.55 189.878 391.595 192.833 391.595 196.478C391.595 200.123 394.55 203.078 398.195 203.078Z" fill="#FFB400"/>
<path d="M180.238 327.214H236.375V333.618H180.238V327.214Z" fill="#A37200"/>
<path d="M35.094 179.756H91.231V186.16H35.094V179.756Z" fill="#674CFB"/>
<path d="M392.054 257.409H448.191V263.813H392.054V257.409Z" fill="#E63946"/>
<path d="M252.34 285.778C251.432 285.778 250.544 285.509 249.789 285.004C249.034 284.5 248.445 283.782 248.098 282.943C247.75 282.104 247.659 281.181 247.836 280.29C248.013 279.399 248.451 278.581 249.093 277.939C249.735 277.297 250.553 276.859 251.444 276.682C252.335 276.505 253.258 276.596 254.097 276.944C254.936 277.291 255.654 277.88 256.158 278.635C256.663 279.39 256.932 280.278 256.932 281.186C256.93 282.404 256.446 283.571 255.585 284.432C254.724 285.293 253.558 285.777 252.34 285.778ZM252.34 277.594C251.63 277.594 250.935 277.805 250.344 278.199C249.754 278.594 249.293 279.155 249.021 279.811C248.75 280.468 248.678 281.19 248.817 281.887C248.956 282.584 249.298 283.224 249.8 283.726C250.302 284.228 250.943 284.57 251.639 284.709C252.336 284.848 253.058 284.777 253.715 284.505C254.371 284.233 254.932 283.772 255.327 283.182C255.721 282.591 255.932 281.897 255.932 281.186C255.931 280.234 255.552 279.32 254.878 278.647C254.205 277.974 253.293 277.595 252.34 277.594ZM340.506 116.201C339.598 116.201 338.71 115.931 337.955 115.427C337.2 114.922 336.612 114.205 336.264 113.366C335.917 112.527 335.826 111.603 336.003 110.713C336.181 109.822 336.618 109.004 337.26 108.362C337.903 107.72 338.721 107.282 339.612 107.105C340.502 106.928 341.426 107.019 342.265 107.367C343.104 107.714 343.821 108.303 344.325 109.058C344.83 109.813 345.099 110.701 345.099 111.609C345.098 112.827 344.613 113.994 343.752 114.855C342.891 115.716 341.724 116.2 340.506 116.201ZM340.506 108.017C339.796 108.017 339.101 108.228 338.511 108.623C337.92 109.018 337.46 109.579 337.188 110.235C336.916 110.892 336.845 111.614 336.984 112.31C337.123 113.007 337.465 113.647 337.967 114.149C338.47 114.652 339.11 114.994 339.807 115.132C340.503 115.271 341.226 115.199 341.882 114.928C342.538 114.656 343.099 114.195 343.494 113.605C343.888 113.014 344.099 112.319 344.099 111.609C344.098 110.657 343.719 109.743 343.045 109.07C342.372 108.397 341.459 108.018 340.506 108.017Z" fill="#674CFB"/>
<path d="M383.048 355.351L375.728 353.351L381.048 347.031L383.048 355.351ZM74.108 125.435L66.788 123.435L72.108 117.115L74.108 125.435Z" fill="#A37200"/>
<path d="M88.3 270.131L80.98 268.131L86.3 261.811L88.3 270.131ZM165.704 93.3971L158.384 91.3971L163.704 85.0771L165.704 93.3971Z" fill="#674CFB"/>
<path d="M306.097 407.023L298.777 405.023L304.097 398.703L306.097 407.023Z" fill="#2CA68F"/>
</svg>
